<?xml version="1.0" standalone="no"?>
<!DOCTYPE svg PUBLIC "-//W3C//DTD SVG 20010904//EN"
 "http://www.w3.org/TR/2001/REC-SVG-20010904/DTD/svg10.dtd">
<svg version="1.0" xmlns="http://www.w3.org/2000/svg"
 width="280.000000pt" height="280.000000pt" viewBox="0 0 280.000000 280.000000"
 preserveAspectRatio="xMidYMid meet">

<g transform="translate(0.000000,280.000000) scale(0.100000,-0.100000)"
fill="#000000" stroke="none">
<path d="M0 1400 l0 -1400 1400 0 1400 0 0 1400 0 1400 -1400 0 -1400 0 0
-1400z m1539 1115 c130 -23 197 -42 294 -85 295 -131 529 -384 626 -675 55
-167 65 -454 22 -620 -43 -165 -131 -330 -247 -465 -61 -72 -177 -175 -234
-207 -25 -15 -52 -32 -60 -39 -34 -28 -219 -97 -304 -114 -272 -54 -513 -26
-731 85 -241 122 -413 293 -524 520 -78 159 -111 307 -111 494 0 229 61 425
195 626 232 348 682 549 1074 480z"/>
<path d="M1180 2365 c-132 -31 -299 -111 -403 -195 -363 -292 -474 -817 -259
-1219 160 -298 456 -496 787 -526 90 -8 270 9 363 35 263 73 505 291 624 562
145 326 86 737 -142 1002 -120 140 -314 270 -473 317 -178 53 -335 61 -497 24z
m503 -588 l-216 -327 -186 0 c-154 0 -183 2 -171 13 8 7 62 52 120 99 58 48
175 144 260 215 85 70 189 155 230 188 92 74 107 86 145 118 17 14 31 24 32
23 2 -1 -95 -149 -214 -329z m6 -454 c0 -5 -32 -33 -71 -63 -39 -30 -120 -95
-178 -145 -129 -109 -361 -299 -415 -340 -21 -16 -56 -45 -77 -64 -21 -19 -41
-32 -43 -29 -2 2 51 87 118 189 67 102 163 247 212 322 l90 137 183 0 c100 0
182 -3 181 -7z"/>
</g>
</svg>
