<svg width="256px" height="256px" viewBox="0 0 24.00 24.00" fill="none" xmlns="http://www.w3.org/2000/svg"><g id="SVGRepo_bgCarrier" stroke-width="0"></g><g id="SVGRepo_tracerCarrier" stroke-linecap="round" stroke-linejoin="round"></g><g id="SVGRepo_iconCarrier"> <path d="M3 14V10C3 9.44772 3.44772 9 4 9H6.64922C6.87629 9 7.0966 8.92272 7.27391 8.78087L10.3753 6.29976C11.0301 5.77595 12 6.24212 12 7.08062V16.9194C12 17.7579 11.0301 18.2241 10.3753 17.7002L7.27391 15.2191C7.0966 15.0773 6.87629 15 6.64922 15H4C3.44772 15 3 14.5523 3 14Z" stroke="#000000" stroke-width="1.584" stroke-linecap="round" stroke-linejoin="round"></path> <path d="M16 9.5L18.5 12M21 14.5L18.5 12M18.5 12L21 9.5M18.5 12L16 14.5" stroke="#000000" stroke-width="1.584" stroke-linecap="round" stroke-linejoin="round"></path> </g></svg>
